<svg width="24" height="24" viewBox="0 0 24 24" fill="none" xmlns="http://www.w3.org/2000/svg">
<rect width="24.0005" height="24.0005" rx="0.923077" fill="white"/>
<path d="M21.084 2.5C21.3109 2.50017 21.5 2.68317 21.5 2.91016V21.0898C21.4998 21.3167 21.3108 21.4998 21.084 21.5H2.91016C2.68331 21.4998 2.50016 21.3167 2.5 21.0898V2.91016C2.5 2.68317 2.68321 2.50017 2.91016 2.5H21.084ZM19.5068 3.19434C19.242 3.19434 18.9833 3.19984 18.7373 3.21875C18.6679 3.21875 18.5982 3.22514 18.5352 3.23145C18.2641 3.25036 17.9993 3.28196 17.7598 3.31348C17.4065 3.35763 17.0845 3.42085 16.7754 3.49023C15.7159 3.7425 14.8959 4.12737 14.2715 4.49316C9.71723 7.22445 9.15543 13.4003 4.41211 14.416C4.1662 14.4728 3.94514 14.504 3.76855 14.5166C3.66132 14.5292 3.57324 14.6179 3.57324 14.7314V20.5537C3.57342 20.6607 3.65474 20.749 3.76172 20.7617C6.01353 20.9446 7.58455 20.4653 8.60645 19.9922C8.80823 19.8976 8.99735 19.8025 9.18652 19.6953C9.67224 19.4178 10.1208 19.1023 10.5371 18.749L10.5498 18.7363C10.5521 18.7344 10.5543 18.7324 10.5566 18.7305H10.5498C11.1742 18.2196 11.7288 17.62 12.2334 16.9893C13.8293 15.0212 15.0218 12.7375 16.7754 11.2236C17.2989 10.7758 17.8792 10.3912 18.5352 10.1074C18.6045 10.0759 18.6743 10.0506 18.75 10.0254L18.9795 9.94043C19.2119 9.86001 19.4535 9.79325 19.709 9.74121C19.7467 9.7287 19.7846 9.7221 19.8223 9.71582C19.9799 9.68431 20.1252 9.66584 20.2324 9.64062C20.3395 9.62788 20.4276 9.53967 20.4277 9.43262V3.43359C20.4277 3.32005 20.3328 3.23189 20.2256 3.22559C20.0492 3.21299 19.8728 3.2065 19.709 3.2002C19.646 3.2002 19.5825 3.19435 19.5195 3.19434H19.5068Z" fill="#E3511F"/>
</svg>
