<svg width="89" height="30" viewBox="0 0 89 30" fill="none" xmlns="http://www.w3.org/2000/svg">
<path d="M26.0004 3C26.2871 3 26.5265 3.23089 26.5267 3.51758V26.4824C26.5265 26.7691 26.2871 27 26.0004 27H3.04431C2.75785 26.9997 2.52696 26.7689 2.52673 26.4824V3.51758C2.52692 3.23107 2.75783 3.00029 3.04431 3H26.0004ZM24.0092 3.87695C23.6745 3.87695 23.3472 3.8843 23.0365 3.9082C22.949 3.90822 22.8612 3.91587 22.7816 3.92383C22.4392 3.94772 22.1047 3.98851 21.8021 4.02832C21.3561 4.08408 20.9493 4.16336 20.559 4.25098C19.2204 4.5697 18.1837 5.05544 17.3949 5.51758C11.6421 8.96783 10.9327 16.7689 4.9408 18.0518C4.63022 18.1234 4.3513 18.1638 4.1283 18.1797C3.99296 18.1957 3.88123 18.3069 3.88123 18.4502V25.8047C3.88123 25.9401 3.98508 26.0514 4.12048 26.0674C6.96478 26.2984 8.94879 25.6932 10.2396 25.0957C10.4946 24.9762 10.734 24.8561 10.973 24.7207C11.5865 24.3701 12.1523 23.9715 12.6781 23.5254L12.6937 23.5098C12.6967 23.5073 12.6996 23.5044 12.7025 23.502H12.6937C13.4825 22.8566 14.1842 22.0995 14.8217 21.3027C16.8376 18.8167 18.3439 15.9319 20.559 14.0195C21.2202 13.454 21.9531 12.9679 22.7816 12.6094C22.8692 12.5695 22.9575 12.5377 23.0531 12.5059L23.3431 12.3984C23.6366 12.2969 23.9415 12.2132 24.264 12.1475C24.3117 12.1316 24.3599 12.1232 24.4076 12.1152C24.6066 12.0755 24.7898 12.0514 24.9252 12.0195C25.0606 12.0036 25.1722 11.8923 25.1722 11.7568V4.17969C25.1722 4.03632 25.0528 3.92406 24.9174 3.91602C24.6944 3.90009 24.4711 3.89273 24.264 3.88477C24.1844 3.88476 24.1044 3.87696 24.0248 3.87695H24.0092Z" fill="#E3511F"/>
<path d="M39.9781 12.4598C39.9212 11.9282 39.6818 11.5142 39.2597 11.2179C38.8417 10.9217 38.2979 10.7735 37.6282 10.7735C37.1574 10.7735 36.7536 10.8446 36.4168 10.9866C36.0799 11.1287 35.8222 11.3214 35.6436 11.5649C35.4651 11.8084 35.3738 12.0864 35.3697 12.3989C35.3697 12.6587 35.4285 12.8839 35.5462 13.0747C35.668 13.2654 35.8324 13.4278 36.0393 13.5617C36.2463 13.6916 36.4756 13.8011 36.7272 13.8904C36.9789 13.9797 37.2325 14.0548 37.4882 14.1157L38.657 14.4079C39.1278 14.5175 39.5803 14.6656 40.0146 14.8523C40.4529 15.039 40.8445 15.2744 41.1895 15.5584C41.5385 15.8425 41.8145 16.1855 42.0174 16.5873C42.2203 16.989 42.3218 17.4598 42.3218 17.9996C42.3218 18.7301 42.1351 19.3734 41.7617 19.9294C41.3884 20.4813 40.8486 20.9136 40.1424 21.2261C39.4403 21.5345 38.5901 21.6887 37.5917 21.6887C36.6217 21.6887 35.7796 21.5386 35.0653 21.2382C34.3551 20.9379 33.7991 20.4996 33.3973 19.9233C32.9996 19.347 32.7845 18.6449 32.752 17.817H34.974C35.0065 18.2512 35.1404 18.6124 35.3758 18.9006C35.6112 19.1887 35.9176 19.4038 36.295 19.5459C36.6765 19.6879 37.1026 19.7589 37.5734 19.7589C38.0645 19.7589 38.4947 19.6859 38.864 19.5398C39.2374 19.3896 39.5296 19.1826 39.7406 18.9188C39.9517 18.651 40.0592 18.3385 40.0633 17.9813C40.0592 17.6567 39.9638 17.3888 39.7772 17.1778C39.5905 16.9627 39.3287 16.7841 38.9919 16.642C38.6591 16.4959 38.2695 16.3661 37.823 16.2524L36.4046 15.8872C35.3778 15.6234 34.5661 15.2236 33.9695 14.6879C33.377 14.1481 33.0807 13.4318 33.0807 12.539C33.0807 11.8044 33.2796 11.1611 33.6773 10.6092C34.0791 10.0572 34.625 9.62906 35.3149 9.32468C36.0048 9.01623 36.7861 8.86201 37.6587 8.86201C38.5434 8.86201 39.3186 9.01623 39.9841 9.32468C40.6538 9.62906 41.1794 10.0532 41.5608 10.597C41.9423 11.1368 42.1392 11.7577 42.1513 12.4598H39.9781ZM45.5845 9.03247V21.5H43.3808V9.03247H45.5845ZM46.9935 21.5V12.1494H49.1972V21.5H46.9935ZM48.1014 10.8222C47.7524 10.8222 47.4521 10.7066 47.2005 10.4752C46.9488 10.2399 46.823 9.95779 46.823 9.62906C46.823 9.29627 46.9488 9.0142 47.2005 8.78287C47.4521 8.54748 47.7524 8.42979 48.1014 8.42979C48.4545 8.42979 48.7548 8.54748 49.0024 8.78287C49.254 9.0142 49.3798 9.29627 49.3798 9.62906C49.3798 9.95779 49.254 10.2399 49.0024 10.4752C48.7548 10.7066 48.4545 10.8222 48.1014 10.8222ZM54.0762 21.6644C53.3416 21.6644 52.6841 21.4756 52.1038 21.0982C51.5234 20.7208 51.0648 20.1729 50.728 19.4545C50.3911 18.7362 50.2227 17.8636 50.2227 16.8369C50.2227 15.7979 50.3931 14.9213 50.734 14.207C51.079 13.4886 51.5437 12.9468 52.1281 12.5816C52.7125 12.2123 53.3639 12.0276 54.0823 12.0276C54.6301 12.0276 55.0806 12.1209 55.4337 12.3076C55.7868 12.4903 56.0668 12.7114 56.2738 12.9712C56.4808 13.2269 56.6411 13.4683 56.7547 13.6956H56.8461V9.03247H59.0559V21.5H56.8887V20.0268H56.7547C56.6411 20.2541 56.4767 20.4955 56.2616 20.7512C56.0465 21.0028 55.7624 21.2179 55.4094 21.3965C55.0563 21.5751 54.6119 21.6644 54.0762 21.6644ZM54.691 19.8563C55.1577 19.8563 55.5555 19.7305 55.8842 19.4789C56.2129 19.2232 56.4625 18.8681 56.633 18.4136C56.8034 17.959 56.8887 17.4294 56.8887 16.8247C56.8887 16.22 56.8034 15.6944 56.633 15.248C56.4666 14.8015 56.219 14.4545 55.8903 14.207C55.5656 13.9594 55.1659 13.8356 54.691 13.8356C54.1999 13.8356 53.79 13.9635 53.4613 14.2192C53.1326 14.4748 52.885 14.8279 52.7186 15.2784C52.5522 15.7289 52.469 16.2443 52.469 16.8247C52.469 17.4091 52.5522 17.9306 52.7186 18.3892C52.8891 18.8437 53.1387 19.2029 53.4674 19.4667C53.8002 19.7265 54.2081 19.8563 54.691 19.8563ZM64.6867 21.6826C63.7492 21.6826 62.9395 21.4878 62.2577 21.0982C61.5799 20.7045 61.0584 20.1485 60.6932 19.4302C60.3279 18.7078 60.1453 17.8575 60.1453 16.8795C60.1453 15.9176 60.3279 15.0735 60.6932 14.347C61.0625 13.6165 61.5779 13.0483 62.2394 12.6425C62.9009 12.2325 63.6781 12.0276 64.571 12.0276C65.1473 12.0276 65.6911 12.1209 66.2025 12.3076C66.7179 12.4903 67.1725 12.7744 67.5661 13.1599C67.9638 13.5455 68.2763 14.0365 68.5036 14.6331C68.7309 15.2256 68.8445 15.9318 68.8445 16.7516V17.4274H61.1802V15.942H66.7321C66.7281 15.5199 66.6367 15.1445 66.4582 14.8157C66.2796 14.483 66.03 14.2212 65.7094 14.0304C65.3928 13.8397 65.0235 13.7443 64.6014 13.7443C64.1509 13.7443 63.7552 13.8539 63.4143 14.0731C63.0734 14.2881 62.8076 14.5722 62.6169 14.9253C62.4302 15.2744 62.3348 15.6579 62.3307 16.0759V17.3726C62.3307 17.9164 62.4302 18.3831 62.629 18.7727C62.8279 19.1583 63.1059 19.4545 63.463 19.6615C63.8202 19.8644 64.2382 19.9659 64.7171 19.9659C65.0377 19.9659 65.3279 19.9213 65.5876 19.832C65.8474 19.7386 66.0726 19.6027 66.2634 19.4241C66.4541 19.2455 66.5982 19.0244 66.6956 18.7606L68.7532 18.9919C68.6233 19.5357 68.3758 20.0106 68.0105 20.4164C67.6493 20.8182 67.1867 21.1307 66.6225 21.3539C66.0584 21.5731 65.4131 21.6826 64.6867 21.6826ZM72.0555 9.03247V21.5H69.8517V9.03247H72.0555ZM74.8342 25.0065C74.5339 25.0065 74.2559 24.9821 74.0002 24.9334C73.7485 24.8888 73.5477 24.836 73.3975 24.7752L73.9089 23.0584C74.2295 23.1518 74.5156 23.1964 74.7672 23.1924C75.0188 23.1883 75.24 23.1092 75.4308 22.955C75.6256 22.8048 75.7899 22.5532 75.9239 22.2001L76.1126 21.6948L72.7218 12.1494H75.0594L77.2145 19.211H77.3119L79.473 12.1494H81.8167L78.0728 22.6323C77.8983 23.1274 77.667 23.5515 77.3788 23.9046C77.0907 24.2618 76.7376 24.5337 76.3196 24.7204C75.9056 24.9111 75.4105 25.0065 74.8342 25.0065Z" fill="white"/>
</svg>
